<?xml version="1.0" encoding="utf-8"?>
<!-- Generator: Adobe Illustrator 21.1.0, SVG Export Plug-In . SVG Version: 6.00 Build 0)  -->
<svg version="1.1" id="Layer_1" xmlns="http://www.w3.org/2000/svg" xmlns:xlink="http://www.w3.org/1999/xlink" x="0px" y="0px"
	 viewBox="0 0 505 189" style="enable-background:new 0 0 505 189;" xml:space="preserve">
<style type="text/css">
	.st0{clip-path:url(#SVGID_2_);fill:url(#SVGID_3_);}
	.st1{fill:#FFFFFF;}
	.st2{fill:url(#SVGID_4_);}
</style>
<g>
	<defs>
		<path id="SVGID_1_" d="M150.2,110.1c1.7,7.1,2.9,14.3,3.5,21.7c0.3,3.5,0.5,7,0.7,10.4c1.9-2.4,3.6-4.9,5.2-7.4
			c0.5-10.7,0.3-20.8-0.5-30.2C156.1,106.6,153.2,108.4,150.2,110.1 M168.6,96.9c-0.4,0.4-0.9,0.7-1.3,1.1c0.8,4.6,1.5,9.3,1.9,13.9
			c1.5-6.1,2.4-12.4,2.4-18.9C170.6,94.3,169.6,95.6,168.6,96.9 M107.9,99.6c-5.5,1.1-10.8,1.9-16,2.5c-0.5,23.9,2.2,49.7,8.2,70.1
			c17.5-1.9,33.3-9.4,45.6-20.7c0.7-14.1-0.2-26.7-2.2-38.1c-12.7,5.6-26.3,7.7-41.6,7.2c17.5-2.6,30.6-6.8,40.8-11.7
			c-1.5-7.5-3.6-14.5-5.9-20.9C128.4,92.4,118.7,96.3,107.9,99.6 M141.8,85.3c2.9,6.4,5.3,13.2,7.3,20.3c3.6-2.1,6.7-4.2,9.5-6.3
			c-0.9-8-2.1-15.5-3.8-22.5C150.9,79.7,146.6,82.6,141.8,85.3 M160.5,72c2.3,6.6,4.2,13.4,5.7,20.4c1.9-1.9,3.6-3.8,5.1-5.7
			c-0.5-7.4-2.1-14.5-4.5-21.2C165,67.7,162.9,69.8,160.5,72 M158.8,67.1c2.3-1.8,4.5-3.6,6.7-5.4c-6.7-15.9-18.4-29.2-33.1-38
			C142.2,33.2,151.8,48.8,158.8,67.1 M92.1,96.1c5-0.7,9.5-1.6,13.4-2.8c10.7-3.2,20.3-7,29-11.3c-7.5-17.7-17.4-30.6-26-39.2
			c10.9,6.2,22.1,19.7,30.7,36.9c5.1-2.7,9.8-5.6,14.2-8.6c-6-22.1-15.4-38.9-25.5-49.8c-3.6-1.9-7.4-3.4-11.4-4.7
			C103.4,35.6,93.5,65.3,92.1,96.1 M11.5,92.6c0,44.2,35.8,80.1,80.1,80.1c0.9,0,1.7-0.1,2.6-0.1c-7.9-18.6-12.3-44-11.3-69.6
			c-23.8,1.5-43.5-2-57.9-7.2c14.7,1.7,38.3,2.9,58.1,1.4c0-0.1,0-0.3,0-0.4c2.5-33.6,15-64.6,30.4-81c-7-2-14.4-3.1-22-3.1
			C47.3,12.5,11.5,48.4,11.5,92.6"/>
	</defs>
	<clipPath id="SVGID_2_">
		<use xlink:href="#SVGID_1_"  style="overflow:visible;"/>
	</clipPath>
	
		<linearGradient id="SVGID_3_" gradientUnits="userSpaceOnUse" x1="11.5" y1="177.0111" x2="12.5" y2="177.0111" gradientTransform="matrix(0 154.0042 154.0042 0 -27168.8984 -1746.8792)">
		<stop  offset="0" style="stop-color:#40A1E0"/>
		<stop  offset="1.309090e-02" style="stop-color:#40A1E0"/>
		<stop  offset="0.9394" style="stop-color:#22BDCC"/>
		<stop  offset="1" style="stop-color:#22BDCC"/>
	</linearGradient>
	<rect x="11.5" y="12.5" class="st0" width="160.1" height="160.1"/>
</g>
<g>
	<path class="st1" d="M421.1,91.1c0-26.3,15.2-43,38.2-43c8,0,14.9,2.2,20.6,5.8c3.2,2,4.5,3.5,5.7,3.5c1.5,0,2.6-1.3,2.6-2.6
		c0-1.3-1.5-2.9-5-5.1c-6.9-4.4-14.8-6.9-24-6.9c-27.1,0-44.5,19.3-44.5,48.7c0,29.2,17.1,49.9,44.6,49.9c9.5,0,17.4-2.6,24-7
		c2.8-1.9,4.8-3.7,4.8-5.3c0-1.2-1.2-2.6-2.5-2.6c-1.2,0-2.6,1.6-5.9,3.8c-5.4,3.7-12.9,5.8-20.3,5.8
		C436.5,136.1,421.1,117.8,421.1,91.1 M359.1,135.4c-4.4,0-9.1-0.3-13.5-0.9V92.4h14.6c5.7,0,10.8,0.7,15.5,2.2
		c11.1,3.5,15.6,11.1,15.6,19.9C391.4,126.6,383.1,135.4,359.1,135.4 M358.7,48.8c20.6,0,29.1,7.5,29.1,18.7
		c0,7.8-4.1,14.5-13.5,17.7c-3.7,1.3-8.6,2-14.3,2h-14.3V49.7C350,49.1,354.6,48.8,358.7,48.8 M373.1,89.6
		c14.5-3.1,21.1-11.4,21.1-22.5c0-14.5-11.6-23.5-35.1-23.5c-5.4,0-11.7,0.4-15.1,1.2c-4.2,0.9-4.2,2.2-4.2,5.1v84.5
		c0,2.8,0,4.2,4.2,5.1c3.4,0.7,9.4,1.2,15.1,1.2c27.1,0,38.8-10.8,38.8-26.2C397.8,101.2,388.9,92.2,373.1,89.6 M310.7,115.8
		c0,12.4-11,20.3-25.2,20.3c-8,0-14.5-2.5-20.3-6.7c-3.4-2.3-3.9-3.5-5.4-3.5c-1.5,0-2.6,1.5-2.6,2.8c0,1.3,1.5,2.9,4.1,4.8
		c6.4,4.7,13.5,7.9,24.1,7.9c17.6,0,31.4-9.5,31.4-26c0-31.4-50.9-24.7-50.9-49.7c0-10.4,8.6-17.5,22.5-17.5c7.5,0,13.3,2,19,5.7
		c2.3,1.5,3.7,2.6,4.7,2.6c1.5,0,2.6-1.6,2.6-2.8c0-1.3-1.3-2.8-4.4-4.8c-6.4-4.2-14.5-6-21.8-6c-17.4,0-28.8,9.1-28.8,23.3
		C259.8,95.8,310.7,88.9,310.7,115.8"/>
	
		<linearGradient id="SVGID_4_" gradientUnits="userSpaceOnUse" x1="11.5" y1="176.9922" x2="12.5" y2="176.9922" gradientTransform="matrix(10.577 -57.6297 -57.6297 -10.577 10292.7529 2628.2913)">
		<stop  offset="0" style="stop-color:#40A1E0"/>
		<stop  offset="1.309090e-02" style="stop-color:#40A1E0"/>
		<stop  offset="0.9394" style="stop-color:#22BDCC"/>
		<stop  offset="1" style="stop-color:#22BDCC"/>
	</linearGradient>
	<polyline class="st2" points="215.4,9.8 215.4,177 213.4,177 213.4,9.8 	"/>
</g>
</svg>
