<?xml version="1.0" encoding="utf-8"?>
<!-- Generator: Adobe Illustrator 21.1.0, SVG Export Plug-In . SVG Version: 6.00 Build 0)  -->
<svg version="1.1" id="Layer_1" xmlns="http://www.w3.org/2000/svg" xmlns:xlink="http://www.w3.org/1999/xlink" x="0px" y="0px"
	 viewBox="0 0 300 112" style="enable-background:new 0 0 300 112;" xml:space="preserve">
<style type="text/css">
	.st0{fill:url(#SVGID_1_);}
	.st1{fill:none;stroke:url(#SVGID_2_);stroke-miterlimit:10;}
	.st2{fill:#FFFFFF;}
	.st3{fill:url(#SVGID_3_);}
	.st4{fill:none;stroke:url(#SVGID_4_);stroke-width:2;stroke-miterlimit:10;}
</style>
<linearGradient id="SVGID_1_" gradientUnits="userSpaceOnUse" x1="51.9898" y1="108.1026" x2="51.9898" y2="4.1229">
	<stop  offset="0" style="stop-color:#2ABFCC"/>
	<stop  offset="1" style="stop-color:#41A4DF"/>
</linearGradient>
<path class="st0" d="M103.8,52.2c-0.4-4.8-1.3-9.4-2.9-13.8c-1.2,1.4-2.6,2.8-4.1,4.2c1.5,4.3,2.7,8.7,3.7,13.3
	C101.7,54.6,102.8,53.4,103.8,52.2L103.8,52.2z M95.6,39.4c1.5-1.1,3-2.3,4.3-3.5c-4.3-10.4-11.9-19-21.5-24.7
	C84.9,17.3,91.1,27.5,95.6,39.4L95.6,39.4z M92.1,42c-3.9-14.4-10-25.3-16.6-32.4c-2.4-1.2-4.8-2.2-7.4-3.1
	c-8.5,12.4-14.9,31.8-15.8,51.8c3.2-0.4,6.2-1,8.7-1.8c6.9-2.1,13.2-4.6,18.8-7.4C75,37.6,68.6,29.2,63,23.6
	c7.1,4,14.3,12.8,19.9,24C86.2,45.8,89.3,43.9,92.1,42L92.1,42z M46.5,58.6c1.6-21.9,9.7-42,19.8-52.7c-4.5-1.3-9.3-2-14.3-2
	C23.3,3.9,0,27.2,0,56c0,28.8,23.3,52.1,52,52.1c0.6,0,1.1-0.1,1.7-0.1c-5.2-12.1-8-28.6-7.3-45.3c-15.5,1-28.3-1.3-37.6-4.7
	c9.5,1.1,24.9,1.9,37.8,0.9C46.5,58.8,46.5,58.7,46.5,58.6L46.5,58.6z M57.6,107.8c11.4-1.2,21.6-6.1,29.6-13.4
	c0.4-9.1-0.2-17.4-1.4-24.8c-8.2,3.6-17.1,5-27,4.7c11.3-1.7,19.9-4.5,26.5-7.6c-1-4.9-2.3-9.4-3.8-13.6c-5.5,2.8-11.7,5.4-18.8,7.5
	c-3.6,0.7-7,1.2-10.4,1.6C51.9,77.7,53.6,94.5,57.6,107.8L57.6,107.8z M84.6,51.3c1.9,4.2,3.4,8.6,4.7,13.2c2.3-1.3,4.3-2.7,6.1-4.1
	c-0.6-5.2-1.4-10.1-2.4-14.6C90.5,47.6,87.7,49.5,84.6,51.3L84.6,51.3z M90.1,67.4c1.1,4.6,1.9,9.3,2.2,14.1
	c0.2,2.3,0.3,4.5,0.4,6.8c1.2-1.5,2.3-3.2,3.4-4.8c0.3-7,0.2-13.5-0.3-19.7C93.9,65.1,92,66.3,90.1,67.4L90.1,67.4z M101.2,59.5
	c0.5,3,1,6,1.3,9.1c1-4,1.5-8.1,1.6-12.3c-0.6,0.8-1.3,1.7-2,2.5C101.7,59,101.4,59.3,101.2,59.5L101.2,59.5z"/>
<linearGradient id="SVGID_2_" gradientUnits="userSpaceOnUse" x1="125.6296" y1="56" x2="126.6296" y2="56">
	<stop  offset="0" style="stop-color:#2ABFCC"/>
	<stop  offset="1" style="stop-color:#41A4DF"/>
</linearGradient>
<line class="st1" x1="126.1" y1="2.8" x2="126.1" y2="109.2"/>
<path class="st2" d="M143.7,76.9l3.2-3.8c3.8,4.3,9.9,8.5,18.2,8.5c11.9,0,15.3-6.6,15.3-11.6c0-17.1-34.9-8.2-34.9-28.6
	c0-9.5,8.6-15.5,19.1-15.5c8.6,0,15.3,3.1,19.7,8.2l-3.3,3.7c-4.2-5.1-10.1-7.3-16.7-7.3c-7.8,0-13.6,4.5-13.6,10.7
	c0,14.9,34.9,6.7,34.9,28.5c0,7.5-5,16.5-20.7,16.5C155.4,86.1,148.2,82.2,143.7,76.9z"/>
<path class="st2" d="M197.7,85.1V26.8h23.9c9.8,0,16.1,5.7,16.1,14.8c0,7.3-5,12.3-10.2,13.4c6.2,1,11.4,7.4,11.4,14.3
	c0,9.7-6.3,15.7-16.7,15.7H197.7z M232.4,42.2c0-5.9-3.9-10.8-11.4-10.8h-18.3v21.6H221C228.5,52.9,232.4,48.2,232.4,42.2z
	 M233.6,69c0-5.9-4.1-11.5-12.2-11.5h-18.7v23.1h18.7C229,80.5,233.6,76.1,233.6,69z"/>
<path class="st2" d="M249.2,56c0-17.9,13-30.1,29.5-30.1c9.3,0,16.3,4.1,21.2,10.3l-4.2,2.7c-3.7-5.1-10-8.5-17-8.5
	c-13.6,0-24.3,10.4-24.3,25.6c0,15,10.7,25.6,24.3,25.6c7,0,13.4-3.4,17-8.5l4.3,2.6c-5.2,6.4-12.1,10.4-21.3,10.4
	C262.2,86.1,249.2,73.9,249.2,56z"/>
<linearGradient id="SVGID_3_" gradientUnits="userSpaceOnUse" x1="51.9898" y1="108.1026" x2="51.9898" y2="4.1229">
	<stop  offset="0" style="stop-color:#2ABFCC"/>
	<stop  offset="1" style="stop-color:#41A4DF"/>
</linearGradient>
<path class="st3" d="M103.8,52.2c-0.4-4.8-1.3-9.4-2.9-13.8c-1.2,1.4-2.6,2.8-4.1,4.2c1.5,4.3,2.7,8.7,3.7,13.3
	C101.7,54.6,102.8,53.4,103.8,52.2L103.8,52.2z M95.6,39.4c1.5-1.1,3-2.3,4.3-3.5c-4.3-10.4-11.9-19-21.5-24.7
	C84.9,17.3,91.1,27.5,95.6,39.4L95.6,39.4z M92.1,42c-3.9-14.4-10-25.3-16.6-32.4c-2.4-1.2-4.8-2.2-7.4-3.1
	c-8.5,12.4-14.9,31.8-15.8,51.8c3.2-0.4,6.2-1,8.7-1.8c6.9-2.1,13.2-4.6,18.8-7.4C75,37.6,68.6,29.2,63,23.6
	c7.1,4,14.3,12.8,19.9,24C86.2,45.8,89.3,43.9,92.1,42L92.1,42z M46.5,58.6c1.6-21.9,9.7-42,19.8-52.7c-4.5-1.3-9.3-2-14.3-2
	C23.3,3.9,0,27.2,0,56c0,28.8,23.3,52.1,52,52.1c0.6,0,1.1-0.1,1.7-0.1c-5.2-12.1-8-28.6-7.3-45.3c-15.5,1-28.3-1.3-37.6-4.7
	c9.5,1.1,24.9,1.9,37.8,0.9C46.5,58.8,46.5,58.7,46.5,58.6L46.5,58.6z M57.6,107.8c11.4-1.2,21.6-6.1,29.6-13.4
	c0.4-9.1-0.2-17.4-1.4-24.8c-8.2,3.6-17.1,5-27,4.7c11.3-1.7,19.9-4.5,26.5-7.6c-1-4.9-2.3-9.4-3.8-13.6c-5.5,2.8-11.7,5.4-18.8,7.5
	c-3.6,0.7-7,1.2-10.4,1.6C51.9,77.7,53.6,94.5,57.6,107.8L57.6,107.8z M84.6,51.3c1.9,4.2,3.4,8.6,4.7,13.2c2.3-1.3,4.3-2.7,6.1-4.1
	c-0.6-5.2-1.4-10.1-2.4-14.6C90.5,47.6,87.7,49.5,84.6,51.3L84.6,51.3z M90.1,67.4c1.1,4.6,1.9,9.3,2.2,14.1
	c0.2,2.3,0.3,4.5,0.4,6.8c1.2-1.5,2.3-3.2,3.4-4.8c0.3-7,0.2-13.5-0.3-19.7C93.9,65.1,92,66.3,90.1,67.4L90.1,67.4z M101.2,59.5
	c0.5,3,1,6,1.3,9.1c1-4,1.5-8.1,1.6-12.3c-0.6,0.8-1.3,1.7-2,2.5C101.7,59,101.4,59.3,101.2,59.5L101.2,59.5z"/>
<linearGradient id="SVGID_4_" gradientUnits="userSpaceOnUse" x1="125.1296" y1="56" x2="127.1296" y2="56">
	<stop  offset="0" style="stop-color:#2ABFCC"/>
	<stop  offset="1" style="stop-color:#41A4DF"/>
</linearGradient>
<line class="st4" x1="126.1" y1="2.8" x2="126.1" y2="109.2"/>
<path class="st2" d="M143.7,76.9l3.2-3.8c3.8,4.3,9.9,8.5,18.2,8.5c11.9,0,15.3-6.6,15.3-11.6c0-17.1-34.9-8.2-34.9-28.6
	c0-9.5,8.6-15.5,19.1-15.5c8.6,0,15.3,3.1,19.7,8.2l-3.3,3.7c-4.2-5.1-10.1-7.3-16.7-7.3c-7.8,0-13.6,4.5-13.6,10.7
	c0,14.9,34.9,6.7,34.9,28.5c0,7.5-5,16.5-20.7,16.5C155.4,86.1,148.2,82.2,143.7,76.9z"/>
<path class="st2" d="M197.7,85.1V26.8h23.9c9.8,0,16.1,5.7,16.1,14.8c0,7.3-5,12.3-10.2,13.4c6.2,1,11.4,7.4,11.4,14.3
	c0,9.7-6.3,15.7-16.7,15.7H197.7z M232.4,42.2c0-5.9-3.9-10.8-11.4-10.8h-18.3v21.6H221C228.5,52.9,232.4,48.2,232.4,42.2z
	 M233.6,69c0-5.9-4.1-11.5-12.2-11.5h-18.7v23.1h18.7C229,80.5,233.6,76.1,233.6,69z"/>
<path class="st2" d="M249.2,56c0-17.9,13-30.1,29.5-30.1c9.3,0,16.3,4.1,21.2,10.3l-4.2,2.7c-3.7-5.1-10-8.5-17-8.5
	c-13.6,0-24.3,10.4-24.3,25.6c0,15,10.7,25.6,24.3,25.6c7,0,13.4-3.4,17-8.5l4.3,2.6c-5.2,6.4-12.1,10.4-21.3,10.4
	C262.2,86.1,249.2,73.9,249.2,56z"/>
</svg>
